<svg xmlns="http://www.w3.org/2000/svg" width="16" height="16" viewBox="0 0 16 16" fill="none">
  <g clip-path="url(#clip0_132_679)">
    <path d="M5.33333 10.6667V12.5334C5.33333 13.2801 5.33333 13.6535 5.47865 13.9387C5.60648 14.1896 5.81046 14.3936 6.06134 14.5214C6.34656 14.6667 6.71992 14.6667 7.46666 14.6667H12.5333C13.2801 14.6667 13.6534 14.6667 13.9386 14.5214C14.1895 14.3936 14.3935 14.1896 14.5213 13.9387C14.6667 13.6535 14.6667 13.2801 14.6667 12.5334V7.46671C14.6667 6.71997 14.6667 6.3466 14.5213 6.06139C14.3935 5.8105 14.1895 5.60653 13.9386 5.4787C13.6534 5.33337 13.2801 5.33337 12.5333 5.33337H10.6667M3.46666 10.6667H8.53333C9.28007 10.6667 9.65343 10.6667 9.93865 10.5214C10.1895 10.3936 10.3935 10.1896 10.5213 9.93869C10.6667 9.65348 10.6667 9.28011 10.6667 8.53337V3.46671C10.6667 2.71997 10.6667 2.3466 10.5213 2.06139C10.3935 1.8105 10.1895 1.60653 9.93865 1.4787C9.65343 1.33337 9.28007 1.33337 8.53333 1.33337H3.46666C2.71992 1.33337 2.34656 1.33337 2.06134 1.4787C1.81046 1.60653 1.60648 1.8105 1.47865 2.06139C1.33333 2.3466 1.33333 2.71997 1.33333 3.46671V8.53337C1.33333 9.28011 1.33333 9.65348 1.47865 9.93869C1.60648 10.1896 1.81046 10.3936 2.06134 10.5214C2.34656 10.6667 2.71992 10.6667 3.46666 10.6667Z" stroke="#ACACAC" stroke-width="1.5" stroke-linecap="round" stroke-linejoin="round"/>
  </g>
  <defs>
    <clipPath id="clip0_132_679">
      <rect width="16" height="16" fill="white"/>
    </clipPath>
  </defs>
</svg>